<svg xmlns="http://www.w3.org/2000/svg" xmlns:xlink="http://www.w3.org/1999/xlink" viewBox="0 0 450 200"><defs><style>.cls-1{fill:none;}.cls-2{isolation:isolate;}.cls-21,.cls-3,.cls-9{fill:#fff;}.cls-3{opacity:0.41;}.cls-4{fill:#8dd8d4;}.cls-5{opacity:0.05;}.cls-15,.cls-19,.cls-20,.cls-5,.cls-6{mix-blend-mode:multiply;}.cls-6{opacity:0.1;}.cls-7{fill:#221f1f;}.cls-8{fill:#58595b;}.cls-10{fill:#e64d25;}.cls-11{fill:#2b71b9;}.cls-12,.cls-24{fill:#e73c31;}.cls-13{fill:#82d4f6;}.cls-14{fill:#ffc708;}.cls-15{opacity:0.3;}.cls-16{fill:#e1e2e3;}.cls-17{clip-path:url(#clip-path);}.cls-18{fill:#e85551;}.cls-19{opacity:0.2;}.cls-20{opacity:0.4;}.cls-20,.cls-21{font-size:16.28px;font-family:MijaW03-Bold, MijaW03-Bold;}.cls-22{fill:#529eb5;}.cls-23{clip-path:url(#clip-path-2);}.cls-24{fill-rule:evenodd;}.cls-25{fill:#414142;}.cls-26{fill:#e6e7e8;}.cls-27{fill:#e5e4e4;}.cls-28{fill:#d2d2d2;}.cls-29{fill:#515254;}</style><clipPath id="clip-path"><polygon class="cls-1" points="51.87 146.35 84.44 138.49 106.31 205.56 88.58 215.04 70.84 224.51 27.24 169.06 51.87 146.35"/></clipPath><clipPath id="clip-path-2"><circle class="cls-1" cx="413.92" cy="104.6" r="13.86"/></clipPath></defs><title>Artboard 8</title><g class="cls-2"><g id="Layer_1" data-name="Layer 1"><path class="cls-3" d="M19.23,211.2a29.83,29.83,0,0,0-3.9.27,161.25,161.25,0,0,1-1.89-24.54c0-84.83,65.4-153.6,146.06-153.6s146.06,68.77,146.06,153.6a161.68,161.68,0,0,1-1.84,24.27Z"/><path class="cls-4" d="M70.9,205.24c-5.94-7.78-12.66-15-19.24-22.19a42.39,42.39,0,0,0-12.85-7.66c1-69.15,54.68-124.87,120.69-124.87,66.67,0,120.72,56.83,120.72,126.94a133.11,133.11,0,0,1-4.57,34.67c-9.37-3.44-15.24-4-25.6-4.5-4.3-.22-8.59-.14-12.88.06-8.13.38-16.23,1.24-24.36,1.41-28.61.6-57.14,2.78-85.65,5.1H81.31a33.91,33.91,0,0,0-4.79-4.71A33.21,33.21,0,0,0,70.9,205.24Z"/><g class="cls-5"><path d="M7.65,93.86c58.66,12.23,104.14,52.87,130.63,112.78l.92-.43-.5-1.25c-.08-.2-.08-.38,0-.42l.53-.25.42,1.11,1-.39.16.43-.39.18L146,203l3.28-1.26c0-.11,0-.21-.08-.31l5-2.51c-16.42-78-62-138.61-126.73-171.31q-4.59,15.63-9.25,31.23Q14.88,69.16,11.57,79.5l.37.12Q9.8,86.75,7.65,93.86ZM32.79,33.64C32.08,35.91,31.72,37,31,39.3c-.08.28-.32.43-.52.33-1.08-.51-1.62-.77-2.7-1.26a.58.58,0,0,1-.21-.69l1.75-5.75c.09-.29.32-.44.53-.34,1.1.53,1.65.81,2.74,1.36A.58.58,0,0,1,32.79,33.64Zm8.7,4.66c-.76,2.17-1.13,3.25-1.89,5.4-.09.27-.32.4-.52.3-1-.57-1.58-.85-2.64-1.4a.56.56,0,0,1-.19-.68l1.85-5.5c.09-.27.32-.4.52-.29,1.08.58,1.61.88,2.68,1.49A.58.58,0,0,1,41.49,38.3ZM50,43.37l-2,5.15a.37.37,0,0,1-.52.25c-1-.62-1.54-.92-2.57-1.52a.56.56,0,0,1-.17-.67l1.93-5.25c.1-.26.33-.37.52-.25l2.61,1.61A.6.6,0,0,1,50,43.37Zm8.22,5.47-2,4.89a.36.36,0,0,1-.52.21l-2.5-1.64a.56.56,0,0,1-.16-.67l2-5c.1-.25.33-.35.52-.22,1,.69,1.52,1,2.53,1.74A.58.58,0,0,1,58.17,48.84Zm8,5.85c-.83,1.85-1.25,2.78-2.09,4.63a.33.33,0,0,1-.51.18c-1-.72-1.45-1.07-2.43-1.77a.55.55,0,0,1-.14-.65L63,52.35a.33.33,0,0,1,.52-.18C64.54,52.9,65,53.28,66,54A.55.55,0,0,1,66.14,54.69Zm7.72,6.23-2.14,4.37a.32.32,0,0,1-.5.14c-.94-.76-1.41-1.14-2.36-1.88a.56.56,0,0,1-.12-.65l2.12-4.47a.32.32,0,0,1,.51-.14c.95.78,1.42,1.17,2.37,2A.59.59,0,0,1,73.86,60.92ZM81.3,67.5c-.87,1.65-1.3,2.48-2.17,4.12a.31.31,0,0,1-.5.1c-.9-.8-1.35-1.2-2.27-2a.54.54,0,0,1-.11-.64c.87-1.68,1.3-2.53,2.16-4.22a.31.31,0,0,1,.5-.1c.92.83,1.38,1.24,2.29,2.08A.58.58,0,0,1,81.3,67.5Zm7.17,6.94-2.2,3.86a.29.29,0,0,1-.48.07c-.87-.85-1.31-1.27-2.19-2.1a.55.55,0,0,1-.1-.63c.88-1.59,1.31-2.38,2.19-4a.29.29,0,0,1,.49-.07l2.2,2.19A.56.56,0,0,1,88.47,74.44Zm6.88,7.28-2.21,3.61a.29.29,0,0,1-.48,0c-.83-.89-1.25-1.33-2.1-2.21a.53.53,0,0,1-.08-.62l2.2-3.71a.29.29,0,0,1,.48,0c.85.92,1.27,1.37,2.1,2.3A.57.57,0,0,1,95.35,81.72Zm6.57,7.61-2.21,3.35c-.11.17-.31.17-.46,0l-2-2.3a.53.53,0,0,1-.07-.61c.88-1.38,1.32-2.08,2.21-3.46.1-.17.31-.17.46,0,.81,1,1.22,1.43,2,2.39A.57.57,0,0,1,101.92,89.33Zm6.27,7.92-2.2,3.11c-.11.15-.31.13-.45,0-.76-1-1.14-1.45-1.92-2.4a.54.54,0,0,1-.06-.6c.88-1.29,1.32-1.93,2.21-3.21.11-.16.31-.14.45,0,.77,1,1.16,1.49,1.91,2.49A.57.57,0,0,1,108.19,97.25Zm6,8.22L112,108.33c-.11.15-.3.11-.43-.07-.73-1-1.09-1.51-1.83-2.5a.57.57,0,0,1,0-.6l2.19-3c.11-.15.31-.12.44.07.73,1,1.1,1.55,1.81,2.59A.54.54,0,0,1,114.14,105.47Zm5.62,8.51-2.15,2.63c-.1.13-.29.08-.42-.12-.68-1-1-1.55-1.72-2.58a.54.54,0,0,1,0-.59c.87-1.08,1.3-1.63,2.16-2.71.11-.14.3-.09.43.11.69,1.06,1,1.6,1.7,2.67A.56.56,0,0,1,119.76,114Zm5.19,8.65-2.1,2.39c-.1.12-.28,0-.4-.15-.64-1.07-1-1.6-1.62-2.67a.52.52,0,0,1,0-.57l2.12-2.48c.1-.13.29-.06.41.14.65,1.1,1,1.65,1.6,2.76A.53.53,0,0,1,125,122.63Zm4.94,9.06-2,2.15c-.1.11-.27,0-.38-.18-.6-1.1-.9-1.65-1.52-2.75a.56.56,0,0,1,0-.57c.83-.89,1.25-1.34,2.07-2.24.11-.11.28,0,.39.17.61,1.13.91,1.7,1.5,2.84A.57.57,0,0,1,129.89,131.69Zm4.58,9.3-2,1.93c-.1.09-.27,0-.37-.21-.55-1.14-.84-1.7-1.41-2.83a.55.55,0,0,1,0-.56l2-2c.1-.1.26,0,.36.21.56,1.16.84,1.74,1.39,2.91A.55.55,0,0,1,134.47,141Zm4.21,9.55c-.76.69-1.15,1-1.91,1.7-.09.09-.25,0-.34-.23-.51-1.17-.77-1.75-1.3-2.91-.09-.21-.1-.46,0-.55l1.94-1.78c.1-.09.25,0,.35.23.51,1.19.77,1.79,1.27,3C138.78,150.21,138.78,150.46,138.68,150.54Zm3.83,9.78-1.82,1.48c-.09.08-.24,0-.32-.26-.47-1.2-.7-1.8-1.18-3-.09-.22-.09-.46,0-.54l1.86-1.56c.1-.08.24,0,.33.26l1.15,3.06C142.61,160,142.6,160.25,142.51,160.32Zm3.45,10-1.73,1.26c-.09.07-.22-.07-.3-.29-.42-1.22-.63-1.83-1.06-3-.08-.22-.07-.46,0-.52l1.77-1.35c.09-.07.22.06.3.29.42,1.25.62,1.87,1,3.12C146.05,170,146,170.25,146,170.32Zm3,10.19-1.62,1.06c-.08.05-.2-.09-.27-.32-.37-1.25-.56-1.87-.94-3.11-.07-.23-.06-.46,0-.52l1.67-1.14c.08,0,.2.09.27.32.37,1.28.55,1.91.9,3.19C149.1,180.23,149.08,180.46,149,180.51Zm2.64,10.39-1.5.86c-.08,0-.19-.12-.25-.35-.32-1.27-.48-1.91-.82-3.17-.06-.23,0-.46,0-.51l1.56-.93c.07-.05.18.1.24.34.32,1.3.48,2,.78,3.25C151.73,190.63,151.72,190.85,151.64,190.9Zm0,7.13,1.43-.74c.07,0,.17.13.22.37.13.61.19.92.31,1.53l-1.67.83c-.12-.6-.19-.9-.32-1.49C151.52,198.29,151.54,198.07,151.61,198ZM135,196l.67-.39c.48,1.12.95,2.25,1.41,3.37l-.61.34c-.07,0-.2-.09-.28-.28-.46-1-.69-1.57-1.16-2.61C135,196.27,135,196.08,135,196Zm-3.95-8.26.82-.54c.52,1.09,1,2.18,1.53,3.28l-.76.48c-.08,0-.21-.07-.31-.25-.49-1-.74-1.53-1.25-2.54C131,188,131,187.82,131.09,187.77Zm-4.25-8,1.74-1.29c.09-.07.24,0,.34.22s.31.6.45.85l-1,.62c.36.68.7,1.37,1.05,2.06l-.91.65c-.09.06-.23,0-.33-.22l-1.35-2.45C126.77,180,126.76,179.83,126.84,179.77ZM122.3,172l1-.84c.6,1,1.21,2,1.8,3.05l-1,.79c-.09.07-.25,0-.35-.19-.57-.95-.86-1.42-1.44-2.36C122.23,172.32,122.21,172.11,122.3,172Zm-4.82-7.45,1.16-1c.63,1,1.25,2,1.87,3l-1.1.95c-.09.08-.26,0-.37-.16L117.52,165C117.4,164.88,117.39,164.67,117.48,164.59Zm-5.08-7.17,1.34-1.31,2,2.9-1.26,1.19c-.1.09-.27,0-.39-.13-.64-.88-1-1.31-1.61-2.18A.39.39,0,0,1,112.4,157.42Zm-5.35-6.87,1.57-1.66c.68.93,1.37,1.87,2,2.81l-1.48,1.51c-.1.11-.28.07-.4-.09L107.1,151A.37.37,0,0,1,107.05,150.55ZM101.46,144l2.11-2.42a.27.27,0,0,1,.42.06c.07.07.11.13.17.2-.16.16-.32.33-.47.5.58.75,1.15,1.51,1.73,2.27l-1.73,1.93a.28.28,0,0,1-.42-.06c-.7-.81-1-1.21-1.76-2A.39.39,0,0,1,101.46,144Zm-5.73-6.16c.79-1,1.22-1.49,1.93-2.38.77.84,1.53,1.68,2.28,2.53l-1.89,2.27a.28.28,0,0,1-.44,0l-1.82-1.9A.39.39,0,0,1,95.73,137.83Zm-6-5.94,2-2.72c.79.81,1.56,1.63,2.34,2.45l-2,2.57a.29.29,0,0,1-.45,0l-1.89-1.8A.37.37,0,0,1,89.69,131.89Zm-6.27-5.61,2.2-3.13h0l2.42,2.33-2.14,3a.3.3,0,0,1-.46,0c-.78-.69-1.17-1-2-1.7A.4.4,0,0,1,83.42,126.28ZM77,121l2.21-3.39a.32.32,0,0,1,.34-.14c.77.68,1.52,1.37,2.28,2.06a.37.37,0,0,1-.06.21L79.52,123a.31.31,0,0,1-.46.08l-2-1.6A.38.38,0,0,1,77,121Zm-6.66-4.93c.88-1.45,1.32-2.18,2.21-3.63a.31.31,0,0,1,.47-.12c.84.62,1.26.94,2.09,1.58a.41.41,0,0,1,.08.53c-.89,1.42-1.33,2.12-2.21,3.54a.34.34,0,0,1-.48.11c-.83-.6-1.24-.9-2.08-1.49A.39.39,0,0,1,70.3,116.08Zm-6.84-4.57,2.19-3.89a.34.34,0,0,1,.49-.16c.86.58,1.29.88,2.14,1.47a.41.41,0,0,1,.09.54l-2.2,3.79a.34.34,0,0,1-.48.15c-.85-.55-1.28-.83-2.14-1.37A.39.39,0,0,1,63.46,111.51Zm-7-4.22,2.17-4.14a.36.36,0,0,1,.49-.2l2.2,1.36a.42.42,0,0,1,.09.55c-.87,1.62-1.3,2.43-2.18,4a.35.35,0,0,1-.48.19l-2.19-1.26A.4.4,0,0,1,56.45,107.29Zm-7.17-3.85c.85-1.75,1.28-2.63,2.13-4.4a.38.38,0,0,1,.5-.23c.9.49,1.35.74,2.25,1.25a.41.41,0,0,1,.1.55c-.86,1.72-1.29,2.58-2.14,4.3a.39.39,0,0,1-.49.23c-.9-.47-1.34-.7-2.24-1.15A.4.4,0,0,1,49.28,103.44ZM42,100c.84-1.86,1.25-2.79,2.09-4.66a.4.4,0,0,1,.49-.27l2.3,1.13a.43.43,0,0,1,.12.56c-.84,1.83-1.26,2.74-2.11,4.56a.4.4,0,0,1-.49.27c-.91-.42-1.36-.63-2.28-1A.42.42,0,0,1,42,100Zm-7.45-3.09,2-4.91c.1-.25.32-.39.5-.31.94.39,1.41.6,2.34,1a.43.43,0,0,1,.13.57l-2,4.81c-.1.24-.32.38-.49.31-.93-.38-1.39-.56-2.33-.92C34.46,97.38,34.4,97.13,34.51,96.88Zm-7.59-2.7c.78-2.06,1.18-3.1,2-5.17.09-.26.32-.41.49-.35l2.39.89c.17.07.24.32.14.58l-2,5.07c-.1.25-.32.4-.5.34l-2.36-.79C26.89,94.69,26.83,94.44,26.92,94.18Zm-7.7-2.3c.75-2.17,1.13-3.25,1.88-5.43.09-.27.31-.44.49-.39,1,.3,1.46.45,2.42.77.18,0,.25.31.16.58-.77,2.13-1.15,3.2-1.91,5.33-.09.26-.31.43-.49.38-1-.27-1.43-.41-2.39-.66C19.2,92.41,19.13,92.15,19.22,91.88ZM11.42,90,13.2,84.3c.09-.28.3-.48.49-.43,1,.25,1.48.37,2.46.64.18,0,.25.31.16.58-.72,2.24-1.09,3.36-1.81,5.59-.09.28-.31.47-.49.43-1-.23-1.45-.34-2.43-.55C11.41,90.52,11.33,90.27,11.42,90Z"/></g><g class="cls-6"><path class="cls-7" d="M32.35,74.77c-8.18-4.19-16.2-7.88-24.7-11.37q9.11-18.48,18.19-37a249.53,249.53,0,0,1,26,16.76Z"/><path class="cls-7" d="M127.33,178.07a220.36,220.36,0,0,1,9.77,26.47c4.46-1,6.69-1.47,11.15-2.47a238.26,238.26,0,0,0-6.6-30.24Z"/><path class="cls-7" d="M70.73,101.32A269.68,269.68,0,0,0,34.3,75.84L53.89,44.69A298.31,298.31,0,0,1,90.73,78.83Q80.72,90.08,70.73,101.32Z"/><path class="cls-7" d="M102.52,135.57a275.09,275.09,0,0,0-30.13-32.79q10-11,20-22.08a295.61,295.61,0,0,1,28.45,40.85Z"/><path class="cls-7" d="M126.55,176.32a278.58,278.58,0,0,0-22.71-39q9.09-6.81,18.16-13.64a292.63,292.63,0,0,1,19.06,46.08Z"/></g><path class="cls-8" d="M135.45,205.61C112.43,142.75,66,96.68,1.67,77.17Q16.58,45.55,31.19,13.79c68.88,40.59,113.18,106.57,122.92,186.1-6.78,2.16-10.11,3.19-16.68,5.14l1-.3-.4-1.33c-.06-.21-.18-.36-.26-.34l-1.64.51c-.08,0-.09.22,0,.42l.42,1.3ZM33.88,25.88l2.63-5.4a.55.55,0,0,0-.15-.72l-2.92-1.69a.46.46,0,0,0-.63.27l-2.6,5.5a.52.52,0,0,0,.16.7l2.89,1.6A.46.46,0,0,0,33.88,25.88Zm-24.19,49,2.65-5.32c.13-.26.08-.54-.12-.61L9.54,68c-.2-.07-.47.1-.6.37L6.32,73.8c-.13.27-.08.53.12.59,1.06.33,1.6.5,2.66.85A.57.57,0,0,0,9.69,74.87ZM43,31.33l2.71-5.13a.57.57,0,0,0-.13-.71l-2.83-1.81a.44.44,0,0,0-.62.23l-2.69,5.23a.54.54,0,0,0,.14.7c1.13.68,1.69,1,2.81,1.72A.44.44,0,0,0,43,31.33ZM18.15,77.89l2.73-5.06c.13-.25.09-.52-.11-.6l-2.63-1.06c-.19-.08-.46.07-.59.33l-2.7,5.16c-.14.25-.09.52.1.59l2.61,1A.54.54,0,0,0,18.15,77.89ZM51.87,37.16c1.11-1.94,1.67-2.92,2.77-4.86a.54.54,0,0,0-.11-.7c-1.09-.78-1.64-1.17-2.74-1.93a.41.41,0,0,0-.61.19l-2.75,5a.51.51,0,0,0,.12.68c1.09.73,1.63,1.1,2.71,1.84A.43.43,0,0,0,51.87,37.16ZM26.45,81.29c1.12-1.91,1.67-2.87,2.79-4.79.14-.24.1-.5-.09-.59-1-.48-1.55-.72-2.58-1.18A.5.5,0,0,0,26,75l-2.77,4.9c-.13.24-.09.5.1.58l2.55,1.08A.5.5,0,0,0,26.45,81.29Zm34-37.93c1.12-1.84,1.69-2.76,2.82-4.6a.54.54,0,0,0-.1-.69c-1-.83-1.58-1.24-2.64-2a.4.4,0,0,0-.6.16c-1.13,1.88-1.69,2.82-2.81,4.7a.53.53,0,0,0,.1.68c1.06.77,1.58,1.16,2.63,1.95A.41.41,0,0,0,60.43,43.36ZM34.58,85.07c1.13-1.81,1.69-2.72,2.83-4.53a.4.4,0,0,0-.08-.58l-2.52-1.3a.5.5,0,0,0-.59.25l-2.81,4.63c-.14.23-.11.49.08.57l2.5,1.2A.5.5,0,0,0,34.58,85.07ZM68.67,49.91c1.14-1.74,1.71-2.6,2.86-4.34a.54.54,0,0,0-.08-.68c-1-.87-1.52-1.3-2.54-2.15a.4.4,0,0,0-.6.11c-1.13,1.78-1.7,2.67-2.84,4.44a.53.53,0,0,0,.08.67c1,.82,1.53,1.23,2.53,2.06A.4.4,0,0,0,68.67,49.91ZM42.51,89.22,45.37,85a.39.39,0,0,0-.07-.57c-1-.57-1.46-.85-2.45-1.41a.46.46,0,0,0-.58.21l-2.85,4.36a.38.38,0,0,0,.07.57l2.44,1.31A.47.47,0,0,0,42.51,89.22ZM76.6,56.8c1.15-1.63,1.72-2.45,2.88-4.08a.53.53,0,0,0-.07-.67c-1-.91-1.45-1.36-2.43-2.25a.39.39,0,0,0-.59.07c-1.14,1.68-1.72,2.51-2.87,4.18a.51.51,0,0,0,.07.66c1,.86,1.46,1.29,2.43,2.16A.38.38,0,0,0,76.6,56.8ZM50.24,93.72l2.88-4a.4.4,0,0,0-.06-.57c-.94-.61-1.42-.91-2.38-1.51a.44.44,0,0,0-.58.16l-2.87,4.11a.38.38,0,0,0,.06.56c1,.56,1.43.84,2.37,1.42A.45.45,0,0,0,50.24,93.72ZM84.19,64l2.89-3.82a.52.52,0,0,0,0-.66c-.92-.95-1.38-1.42-2.32-2.35a.36.36,0,0,0-.57,0l-2.89,3.91a.53.53,0,0,0,0,.66c.94.89,1.4,1.35,2.33,2.26A.36.36,0,0,0,84.19,64ZM57.76,98.58l2.89-3.75a.38.38,0,0,0,0-.55c-.92-.66-1.38-1-2.31-1.63a.43.43,0,0,0-.57.13l-2.89,3.85a.38.38,0,0,0,.05.55c.93.6,1.39.91,2.31,1.53A.44.44,0,0,0,57.76,98.58Zm33.69-27L94.34,68a.5.5,0,0,0,0-.64c-.88-1-1.32-1.48-2.21-2.46a.36.36,0,0,0-.56,0l-2.89,3.66a.5.5,0,0,0,0,.64c.89.94,1.34,1.41,2.22,2.36A.36.36,0,0,0,91.45,71.56Zm-26.4,32.22,2.89-3.49a.39.39,0,0,0,0-.55c-.89-.7-1.34-1-2.24-1.73a.42.42,0,0,0-.56.1c-1.15,1.44-1.73,2.15-2.89,3.59a.38.38,0,0,0,0,.54c.91.64,1.35,1,2.24,1.63A.41.41,0,0,0,65.05,103.78ZM98.36,79.4l2.87-3.31a.53.53,0,0,0,0-.64c-.83-1-1.25-1.53-2.1-2.55a.34.34,0,0,0-.54,0l-2.88,3.41a.5.5,0,0,0,0,.63l2.11,2.45A.35.35,0,0,0,98.36,79.4ZM72.11,109.31,75,106.07a.37.37,0,0,0,0-.53c-.86-.74-1.29-1.11-2.16-1.83a.39.39,0,0,0-.55.05l-2.87,3.34a.36.36,0,0,0,0,.53c.87.69,1.3,1,2.16,1.74A.41.41,0,0,0,72.11,109.31Zm32.8-21.78,2.84-3.06a.52.52,0,0,0,0-.63c-.79-1.06-1.19-1.58-2-2.63a.34.34,0,0,0-.52-.07l-2.86,3.16a.5.5,0,0,0,0,.62c.81,1,1.21,1.52,2,2.54A.33.33,0,0,0,104.91,87.53Zm-26,27.64,2.84-3a.38.38,0,0,0,0-.53l-2.08-1.93a.38.38,0,0,0-.53,0l-2.85,3.09a.36.36,0,0,0,0,.52l2.09,1.84A.38.38,0,0,0,78.92,115.17Zm32.17-19.23,2.8-2.82a.49.49,0,0,0,0-.61c-.74-1.09-1.11-1.64-1.87-2.72a.32.32,0,0,0-.5-.1L108.7,92.6a.49.49,0,0,0,0,.61c.76,1.05,1.14,1.57,1.89,2.63A.33.33,0,0,0,111.09,95.94Zm-25.62,25.4,2.8-2.74a.37.37,0,0,0,0-.52c-.79-.82-1.18-1.22-2-2a.37.37,0,0,0-.52,0c-1.12,1.14-1.68,1.71-2.81,2.84a.35.35,0,0,0,0,.51c.81.77,1.21,1.16,2,1.94A.36.36,0,0,0,85.47,121.34Zm31.42-16.72,2.75-2.58a.49.49,0,0,0,0-.6c-.69-1.13-1-1.69-1.74-2.8-.13-.2-.35-.26-.49-.13l-2.78,2.67a.49.49,0,0,0,0,.59c.72,1.08,1.07,1.62,1.77,2.71A.32.32,0,0,0,116.89,104.62Zm-25.13,23.2,2.74-2.51a.37.37,0,0,0,0-.51c-.75-.85-1.14-1.27-1.9-2.11a.36.36,0,0,0-.51,0l-2.76,2.6a.35.35,0,0,0,0,.5c.78.81,1.16,1.21,1.93,2A.35.35,0,0,0,91.76,127.82Zm30.54-14.28,2.69-2.33a.52.52,0,0,0,0-.6c-.64-1.15-1-1.73-1.62-2.87-.12-.21-.33-.28-.46-.16L120.22,110a.46.46,0,0,0,0,.58c.66,1.11,1,1.67,1.64,2.79C122,113.59,122.16,113.66,122.3,113.54Zm-24.54,21,2.67-2.27a.35.35,0,0,0,0-.5c-.71-.89-1.08-1.33-1.81-2.21a.35.35,0,0,0-.48-.08l-2.7,2.37a.34.34,0,0,0,0,.49l1.84,2.12A.34.34,0,0,0,97.76,134.59Zm29.47-12,2.62-2.11a.5.5,0,0,0,0-.58c-.59-1.18-.89-1.77-1.49-2.94-.11-.22-.31-.31-.44-.2l-2.65,2.2a.5.5,0,0,0,0,.58c.62,1.14.92,1.71,1.53,2.86C126.91,122.58,127.1,122.66,127.23,122.56Zm-23.85,19,2.6-2a.36.36,0,0,0,0-.49c-.68-.92-1-1.38-1.71-2.29a.33.33,0,0,0-.47-.11l-2.63,2.13a.35.35,0,0,0,0,.49c.7.87,1,1.32,1.74,2.2A.35.35,0,0,0,103.38,141.54ZM131.84,132l2.53-1.88a.51.51,0,0,0,0-.58c-.53-1.2-.8-1.8-1.36-3-.1-.22-.28-.32-.41-.23l-2.57,2a.46.46,0,0,0,0,.56c.56,1.17.84,1.75,1.39,2.93C131.53,131.94,131.71,132,131.84,132Zm-23,16.92,2.51-1.82a.37.37,0,0,0,0-.49c-.64-.95-1-1.43-1.62-2.37-.12-.17-.32-.24-.44-.14L106.7,146a.33.33,0,0,0,0,.47l1.65,2.3A.33.33,0,0,0,108.79,148.87ZM136,141.55l2.44-1.66c.12-.08.15-.33.06-.56-.48-1.23-.73-1.85-1.23-3.07-.09-.23-.26-.34-.39-.25l-2.47,1.75c-.13.08-.15.33-.05.55.51,1.19.76,1.79,1.26,3C135.74,141.52,135.91,141.64,136,141.55Zm-22.14,14.92,2.41-1.6a.38.38,0,0,0,0-.48c-.6-1-.9-1.48-1.51-2.45-.12-.18-.31-.26-.43-.18l-2.45,1.69a.36.36,0,0,0,0,.47c.63,1,.94,1.42,1.56,2.38C113.58,156.47,113.77,156.55,113.89,156.47Zm25.91-5.11,2.32-1.45c.12-.07.15-.32.07-.55-.43-1.26-.64-1.88-1.09-3.13-.08-.23-.24-.36-.36-.28l-2.37,1.53c-.12.08-.14.32-.06.55.46,1.21.69,1.82,1.13,3.05C139.52,151.3,139.68,151.43,139.8,151.36Zm-21.14,13,2.3-1.39c.11-.07.12-.28,0-.47-.56-1-.84-1.52-1.41-2.53-.11-.19-.29-.28-.4-.2l-2.35,1.47c-.11.07-.12.28,0,.46.59,1,.88,1.47,1.45,2.45C118.37,164.31,118.55,164.4,118.66,164.33Zm24.46-3,2.21-1.24c.11-.07.14-.31.08-.54-.38-1.28-.56-1.92-.95-3.19-.07-.23-.22-.37-.34-.3l-2.25,1.32c-.11.07-.14.31-.07.53.41,1.24.61,1.87,1,3.11C142.87,161.27,143,161.41,143.12,161.35Zm-20,11.08,2.17-1.18c.11-.06.12-.27,0-.46-.51-1-.77-1.57-1.3-2.6-.09-.2-.26-.3-.37-.24l-2.23,1.27c-.11.06-.11.26,0,.45.54,1,.81,1.51,1.34,2.53C122.82,172.39,123,172.49,123.1,172.43Zm22.9-.92,2.08-1c.1-.05.14-.29.08-.53-.31-1.29-.47-1.94-.8-3.23-.06-.24-.2-.39-.31-.33l-2.13,1.12c-.1.05-.14.29-.07.52.35,1.26.52,1.89.85,3.16C145.76,171.41,145.9,171.56,146,171.51Zm-18.82,9.27,2-1c.11,0,.12-.25,0-.45-.47-1.07-.7-1.61-1.19-2.67-.09-.2-.24-.32-.35-.26l-2.09,1.06c-.1.06-.11.25,0,.44.5,1,.75,1.56,1.24,2.61C126.93,180.71,127.08,180.83,127.18,180.78Zm21.24,1.05,1.94-.85c.09,0,.13-.27.09-.51-.26-1.32-.39-2-.66-3.28,0-.24-.17-.4-.27-.35l-2,.92c-.1.05-.14.27-.09.51.3,1.28.44,1.92.72,3.21C148.21,181.72,148.33,181.87,148.42,181.83Zm-17.51,7.52,1.9-.8c.09,0,.11-.24,0-.44-.42-1.1-.64-1.65-1.07-2.74-.08-.2-.23-.33-.32-.29l-2,.88c-.09,0-.1.23,0,.43.46,1.06.68,1.6,1.13,2.67C130.68,189.26,130.82,189.39,130.91,189.35Zm19.47,3,1.78-.67c.09,0,.13-.26.1-.5-.2-1.33-.3-2-.51-3.32,0-.24-.15-.41-.24-.38l-1.85.74c-.09,0-.13.26-.08.5.23,1.3.35,2,.56,3.25C150.18,192.16,150.29,192.33,150.38,192.3Zm-16.1,5.84,1.74-.62c.08,0,.1-.22,0-.43-.38-1.13-.57-1.69-1-2.81-.07-.2-.2-.34-.29-.31l-1.8.69c-.09,0-.1.22,0,.42.41,1.1.61,1.64,1,2.74C134.06,198,134.19,198.17,134.28,198.14Zm17.16,2.6,1.95-.62c-.06-.63-.1-.94-.17-1.56,0-.25-.12-.43-.2-.4l-1.69.56c-.08,0-.12.24-.09.49Z"/><path class="cls-9" d="M33.26,74.14c-8.36-4-16.52-7.36-25.2-10.55Q16.81,45,25.44,26.27A235.86,235.86,0,0,1,52,42.1Q42.68,58.15,33.26,74.14Z"/><path class="cls-9" d="M129.93,177.37a212.14,212.14,0,0,1,9.49,27.06c4.35-1.3,6.54-2,11-3.37A229.4,229.4,0,0,0,144,170.27C138.32,173.16,135.51,174.58,129.93,177.37Z"/><path class="cls-9" d="M72.53,99.94A255.14,255.14,0,0,0,35.25,75.15q9.47-15.78,18.85-31.6A282,282,0,0,1,91.91,76.83Q82.27,88.41,72.53,99.94Z"/><path class="cls-9" d="M105,134.2a259.41,259.41,0,0,0-30.75-32.82q9.72-11.32,19.36-22.7a281.14,281.14,0,0,1,29.21,40.75Q113.94,126.84,105,134.2Z"/><path class="cls-9" d="M129.16,175.58A264.18,264.18,0,0,0,106.33,136q8.88-7.17,17.69-14.4a279.13,279.13,0,0,1,19.35,46.61C137.65,171.22,134.81,172.69,129.16,175.58Z"/><path class="cls-10" d="M109.44,153.82H213.07a0,0,0,0,1,0,0v39.83A23.38,23.38,0,0,1,189.69,217H132.82a23.38,23.38,0,0,1-23.38-23.38V153.82a0,0,0,0,1,0,0Z" transform="translate(322.51 370.84) rotate(-180)"/><path class="cls-6" d="M195,210.43c.3-2-5.35-56.61-5.35-56.61l-10.23.3L182.29,211Z"/><path class="cls-11" d="M104.81,179.74a19.17,19.17,0,0,0,5.86-.91c17.88-5.7,24.48-36.25,24.76-37.55l-4.71-1c-.06.29-6.3,29.12-21.52,34-6.72,2.14-14.52-.83-23.17-8.84l-3.26,3.53C90.53,176.13,97.92,179.74,104.81,179.74Z"/><path class="cls-6" d="M186.37,154.92a13.88,13.88,0,0,1,.32-3.49l-.51-5c.8,0,1.59.06,2.38.08a17.9,17.9,0,0,1,2.93-4c.23-.22.46-.42.7-.62h-.5l.46-.44a32,32,0,0,0,7.92-14s.35,7.47-.47,8.84c0,0,7.63-8.55,7.6-17.1,0,0,.75,7.49.46,9.06,0,0,7.8-11.46,7.69-24.06,0,0,1.12,4.21.85,5.13,0,0,9.59-8.16-1.59-21.32A7.25,7.25,0,0,1,220,89.87s-4.55-10.77-18.14-14.71c0,0,4.76-1.51,6.43-1a26.48,26.48,0,0,0-14.81-4.89l-6.7-14,6.73,0s-1.1-2.27-8-3.69c1.75-9.29-5-23.33-5-23.33-1.1.22-2.14.47-3.14.74h0c-17.37,4.63-20.9,15.81-21.58,19.33a93.45,93.45,0,0,0-17,7.75s3.05-5.11,7.48-7.18a28.84,28.84,0,0,0-20.07,13.9s-23.13-7.17-39.64,4c0,0,1.2,9.68,20.35,28.5,0,0-10,12.34-9.93,23.29,0,0,4.1-11.16,7.62-14.45,0,0-10.9,23,.38,34.58,0,0-2.22-7.44-1.06-11.14.63,2.72,5.44,21.9,17.2,28.4,0,0-5.41-8.25-6.52-12.37,0,0,5.08,10,20,13.71l3,48L192,202.11,187.69,161A19,19,0,0,1,186.37,154.92Zm-82.32-27.67c.06-.13.12-.27.19-.39s0,.12.05.34Zm76.51-77-1.22-8.08A26.48,26.48,0,0,1,180.56,50.26Z"/><path class="cls-11" d="M194.61,157.5a91,91,0,0,1-20.38-19l3.6-2.89c29.65,37,65.9,29.32,66.26,29.23l1,4.51c-.4.09-10.06,2.2-23.67-.55A75,75,0,0,1,194.61,157.5Z"/><path class="cls-12" d="M92.27,160.46c1.76-2.17,4.77-6,3.54-9-2.36-5.78-7.34,3.42-8.9,6a75,75,0,0,0,3-11.1,22,22,0,0,0,.47-6.16c-.16-1.48-.93-5-3.06-4.73s-3,4.32-3.41,6a20.46,20.46,0,0,0,2.14,14.34c-1.83-3.16-3.73-6.27-5.81-9.26A52.64,52.64,0,0,0,76,141.08c-1.21-1.32-2.92-3.35-4.89-3.47-5.53-.32,1,9.68,2,11.25,4,6.14,8.36,9.74,14.17,14.09l.41.31c-2.17,2.89-9.32,11.89-5.71,15.5,4.84,4.53,9.53-11.49,8.4-15.3Z"/><polygon class="cls-11" points="180.96 130.01 187.95 203.04 133.57 206.64 129.36 132.27 180.96 130.01"/><path class="cls-13" d="M163.12,164.4A3.58,3.58,0,1,1,166.7,168,3.58,3.58,0,0,1,163.12,164.4Zm1.6,0a2,2,0,1,0,2-2A2,2,0,0,0,164.72,164.4Z"/><path class="cls-13" d="M165.9,178.58a3.58,3.58,0,1,1,3.58,3.58A3.57,3.57,0,0,1,165.9,178.58Zm1.6,0a2,2,0,1,0,2-2A2,2,0,0,0,167.5,178.58Z"/><polygon class="cls-13" points="172.25 143.22 172.25 154.3 164.22 147.21 158.65 156.44 156.28 143.84 172.25 143.22"/><polygon class="cls-6" points="161.79 130.44 181.37 130.09 187.68 203.36 171.59 203.97 161.79 130.44"/><path class="cls-14" d="M29.86,164.88c-1.32,1.25-1.48,3.2.7,5,2.33,1.89,4.91,3.8,7.79,4,2.15.13,4.18-.73,6.29-1,1.83-.25,3.71-.08,5.56-.21a17.32,17.32,0,0,0,11.62-5.66,4.66,4.66,0,0,0,.93.61c2.2,1,4.73.49,6.82-.52a16.34,16.34,0,0,0,5.8-4.74,5.5,5.5,0,0,0,1.41-4.09,4.83,4.83,0,0,0-2.66-3.3,10.44,10.44,0,0,0-3-.9l9.65-11.9A7.9,7.9,0,0,0,81,135a6.13,6.13,0,0,0-5.93-3.54,4.17,4.17,0,0,0-1.88.78c-.91-3.76-3.15-7-7.5-6.9a5.28,5.28,0,0,0-4.2,2,4,4,0,0,0-.47,1,7.07,7.07,0,0,0-10.31,3.06,13.14,13.14,0,0,0-2.37-3.11,7.48,7.48,0,0,0-4.44-2.11c-3.15-.23-7.7,2.72-7.47,6.14a13.3,13.3,0,0,0-8.5,1.6c-1.66,1.1-3.1,3-2.7,5.06a4,4,0,0,0,.58,1.45,11.64,11.64,0,0,0-3.39,3.24,4.33,4.33,0,0,0-.54,3.64A6.17,6.17,0,0,0,24,149.82c.66.52,1.34,1,2,1.45a6.11,6.11,0,0,0-3.05,5,8.75,8.75,0,0,0,2.93,6.47A10,10,0,0,0,29.86,164.88Zm40.62-10.09.07-.08a5.18,5.18,0,0,0,.47.58Z"/><g class="cls-15"><path d="M23,156.3a6.11,6.11,0,0,1,3.05-5c-.7-.45-1.38-.93-2-1.45-.29-.24-.58-.49-.86-.76a6.38,6.38,0,0,1,2.78-6.24A6.53,6.53,0,0,1,34,144.56c-.12-1.54-.24-3.06.7-4.2a3.89,3.89,0,0,1,2.59-1.28,6.13,6.13,0,0,1,5.78,2.79c.1.17.19.35.27.52.07-.17.13-.36.21-.53a4.55,4.55,0,0,1,3.83-2.69,4.36,4.36,0,0,1,3.57,2.4,9.53,9.53,0,0,1,.93,4.36,8.88,8.88,0,0,1-.61,3.93,4,4,0,0,1-3,2.38l-.59,8.5c-.32-.14-.62-.3-.92-.46A13.59,13.59,0,0,1,50.1,169a9.41,9.41,0,0,1-.87,3.68,38.89,38.89,0,0,0-4.59.17c-2.11.3-4.14,1.16-6.29,1a6.81,6.81,0,0,1-1.2-.18c0-.06,0-.12-.07-.19l-.14.13a17.45,17.45,0,0,1-6.38-3.73c-2.18-1.78-2-3.73-.7-5a10,10,0,0,1-3.93-2.11A8.75,8.75,0,0,1,23,156.3Z"/></g><polygon class="cls-16" points="84.44 138.49 51.87 146.35 88.58 215.04 106.31 205.56 84.44 138.49"/><polygon class="cls-16" points="27.24 169.06 51.87 146.35 88.58 215.04 70.84 224.51 27.24 169.06"/><g class="cls-17"><polygon class="cls-18" points="73.96 134.54 103.62 213.51 99.43 217.01 64.62 135.64 73.96 134.54"/><polygon class="cls-18" points="28.68 158.74 77.85 227.29 81.84 225.16 34.78 151.58 28.68 158.74"/><polygon class="cls-18" points="91.03 225.47 96.14 222.73 54.17 136 41.99 142.51 91.03 225.47"/></g><polygon class="cls-19" points="27.24 169.06 51.87 146.35 88.58 215.04 70.84 224.51 27.24 169.06"/><path class="cls-14" d="M15,105.57a5.73,5.73,0,0,1,1.77-6.14,4.14,4.14,0,0,1,3.32-1A5.75,5.75,0,0,1,23,100.35l.27.3a3.23,3.23,0,0,1,1-.87,2.51,2.51,0,0,1,1.11-.29,3.18,3.18,0,0,1,2.46,1.56A6.77,6.77,0,0,1,29,105.76c-.09.66-.83,1.83-.75,2.4.18,1.31,1.86,1.63,1,3.28a3.48,3.48,0,0,1-2,1.48,5.88,5.88,0,0,1-2.73.22c-.84-.12-2.56-1.5-3.13-1.45-1.6.14-2.31,3-4.56,3a4.25,4.25,0,0,1-3.94-2.44c-.93-2.06.22-3.89,1.32-5.59A7.05,7.05,0,0,1,15,105.57Z"/><path class="cls-14" d="M19.48,180.28a5.76,5.76,0,0,1,5.11-3.84,4.23,4.23,0,0,1,3.23,1.25A5.84,5.84,0,0,1,29,180.92l0,.4a3.47,3.47,0,0,1,1.36-.07,2.69,2.69,0,0,1,1.06.44,3.21,3.21,0,0,1,1,2.74,6.77,6.77,0,0,1-2,4.4c-.47.47-1.76,1-2,1.47-.64,1.15.51,2.41-1.22,3.18a3.42,3.42,0,0,1-2.48,0A5.89,5.89,0,0,1,22.41,192c-.59-.6-1.14-2.74-1.62-3-1.36-.85-3.63,1-5.47-.32a4.24,4.24,0,0,1-1.68-4.32c.51-2.21,2.52-3,4.43-3.67A6.63,6.63,0,0,1,19.48,180.28Z"/><path class="cls-14" d="M14,137.63a3.54,3.54,0,0,1-3,2,5.55,5.55,0,0,1-3.79-1.41,3.78,3.78,0,0,1-1.55-2.74,2.91,2.91,0,0,1,2.22-2.65c-.15-.3-.28-.6-.41-.91a4.85,4.85,0,0,1-.39-1.54A1.75,1.75,0,0,1,7.65,129a1.75,1.75,0,0,1,2,0,2.7,2.7,0,0,1,.72.67l.06-.14a2.26,2.26,0,0,1,1.39-1.41,1.8,1.8,0,0,1,1.59.59,2.28,2.28,0,0,1,.57,1,2.85,2.85,0,0,1,2.34,1.14,3.9,3.9,0,0,1,.72,3.28,5.61,5.61,0,0,1-1.76,2.69,3.56,3.56,0,0,1-1.19.76Z"/><path class="cls-14" d="M32.88,118.55a2.83,2.83,0,0,1,0-.29,3.47,3.47,0,0,1-.89-.82,3.27,3.27,0,0,1-.78-2.12A3.2,3.2,0,0,1,32.61,113a5,5,0,0,1,2.06-.86h.06a2.84,2.84,0,0,1,.41-1.29A3.9,3.9,0,0,1,37.63,109a3.68,3.68,0,0,1,3,.66,2.24,2.24,0,0,1,1,2,1.86,1.86,0,0,1-.13.46l.37.17a3.89,3.89,0,0,1,1.42,1.25,2.76,2.76,0,0,1,.45,1.83,4.37,4.37,0,0,1-2.17,2.75l-.49.31a3.44,3.44,0,0,1-.45,1.28A4.63,4.63,0,0,1,38,121.76a4.15,4.15,0,0,1-3.32-.41A3.74,3.74,0,0,1,32.88,118.55Z"/><rect class="cls-10" x="231.14" y="34.12" width="26.38" height="7.32" transform="translate(488.66 75.56) rotate(-180)"/><rect class="cls-14" x="231.14" y="41.44" width="26.38" height="7.32" transform="translate(488.66 90.21) rotate(-180)"/><polygon class="cls-4" points="237.23 29.32 251.43 29.32 257.52 34.12 231.14 34.12 237.23 29.32"/><polygon class="cls-4" points="237.23 53.57 251.43 53.57 257.52 48.77 231.14 48.77 237.23 53.57"/><rect class="cls-4" x="237.18" y="24.99" width="14.3" height="4.33" transform="translate(488.66 54.3) rotate(-180)"/><rect class="cls-4" x="231.14" y="53.53" width="26.38" height="3.38" rx="1.69" ry="1.69" transform="translate(488.66 110.45) rotate(180)"/><rect class="cls-4" x="235.79" y="56.91" width="17.08" height="3.24" rx="1.62" ry="1.62" transform="translate(488.66 117.07) rotate(180)"/><polygon class="cls-4" points="246.61 58.21 251.88 109.2 236.78 109.2 242.05 58.21 246.61 58.21"/><path class="cls-4" d="M242.3,5h4.06a0,0,0,0,1,0,0V25.12a2,2,0,0,1-2,2h0a2,2,0,0,1-2-2V5A0,0,0,0,1,242.3,5Z" transform="translate(488.66 32.1) rotate(180)"/><path class="cls-12" d="M243,169.55c.78,2.68,2.22,7.33,5.38,8,6.09,1.36,1.36-8,.13-10.73a74.16,74.16,0,0,0,7.38,8.82,22.12,22.12,0,0,0,4.79,3.9c1.32.72,4.64,2.08,5.64.18s-1.83-5-3-6.22a20.46,20.46,0,0,0-13-6.41c3.64.29,7.28.5,10.93.5a51.75,51.75,0,0,0,6.93-.38c1.77-.23,4.42-.48,5.64-2,3.41-4.36-8.52-4.7-10.39-4.76-7.32-.23-12.76,1.31-19.66,3.61l-.48.16c-1.14-3.43-4.47-14.44-9.48-13.53-6.48,1.4,4,14.38,7.78,15.63Z"/><path class="cls-9" d="M367.37,179.55c4.27,1.46,6.23-.51,8.48-4.11-1.11,5.52,5.72,9.38,10.79,7.16a4.8,4.8,0,0,0,2.65-2.6c5.87,2.45,14.58,1.19,12.09-2.85-1.9-3.19-8.33-2.69-11.45-2.44,2.53-.9,5.29-2.42,6.65-4.83,2-3.4,1.17-10.68-4.07-9.29-3.13.66-5,5.11-6,7.75-1-9.76-15.66-8.85-12.71,2a5.85,5.85,0,0,0-6.78-4.69C358.73,166.72,360.88,177.36,367.37,179.55Z"/><path class="cls-9" d="M216,23.58c-3.07,1.05-4.48-.37-6.1-3,.8,4-4.12,6.75-7.77,5.16a3.47,3.47,0,0,1-1.91-1.87c-4.22,1.76-10.49.85-8.7-2.06,1.37-2.3,6-1.94,8.24-1.75a8.8,8.8,0,0,1-4.79-3.48c-1.46-2.45-.84-7.69,2.93-6.69,2.26.48,3.61,3.68,4.3,5.58.68-7,11.28-6.38,9.15,1.47a4.21,4.21,0,0,1,4.88-3.38C222.17,14.34,220.63,22,216,23.58Z"/><polygon class="cls-9" points="152.1 139.98 119.61 132.33 106.29 96.31 102.25 84.81 86.27 64.78 92.03 58.15 113.15 58.55 137.34 64.75 161.25 37.86 173.36 24.27 178 55 196.01 76.18 196.27 101.1 178.95 130.19 152.1 139.98"/><path class="cls-12" d="M216,85.06s-4.55-10.76-18.14-14.71c0,0,4.77-1.5,6.44-.95a26.48,26.48,0,0,0-14.81-4.89l-6.7-14,6.73,0s-1.11-2.28-8-3.7c1.74-9.29-5-23.32-5-23.32-20.11,4.05-24,16.34-24.73,20.06a94.15,94.15,0,0,0-17,7.75s3.06-5.11,7.49-7.18a28.87,28.87,0,0,0-20.08,13.9s-23.13-7.17-39.63,4c0,0,1.19,9.67,20.34,28.5,0,0-10,12.33-9.93,23.28,0,0,4.11-11.16,7.62-14.45,0,0-10.9,23,.39,34.58,0,0-2.58-8.62-.74-11.91,0,0,1.29,8.35,5.3,14.77l-.49-.14a8.23,8.23,0,0,1,1.37,1.07l.1.1a22.18,22.18,0,0,1,3.72.22c-1.25-2.42-2.29-5.13-2-7a77.35,77.35,0,0,0,5,7.69c.5.15,1,.29,1.48.48,3,1.14,5.89,2.42,8.75,3.83l4.39-.09c7.19.93,12,2,19.68,1.75,7-.24,14-.3,21-.14,3.38.07,5.59-1.24,9.16-2.31,4.85-1.46,7.42-4.15.26,1.16a30.24,30.24,0,0,1,6.06-3.5l-.09,0h0l1.23-.76a16.85,16.85,0,0,0,3-2.46,32.08,32.08,0,0,0,7.92-14s.34,7.47-.47,8.84c0,0,7.62-8.55,7.59-17.1,0,0,.75,7.49.47,9.07,0,0,7.8-11.47,7.69-24.06,0,0,1.11,4.2.84,5.13,0,0,9.6-8.17-1.58-21.32A7.24,7.24,0,0,1,216,85.06ZM105,80.81c-7.92-3.7-14.44-15.54-14.44-15.54,8.31-5.75,23.53-.3,23.53-.3C108.28,71.25,105,80.81,105,80.81Zm58.84,21.48c-8.17,3.32-18.07,0-22.08-9.87s-3.19-26.83,5-30.15,20.58,8.27,24.59,18.13S172,99,163.83,102.29ZM175.45,50s-12.1-5.31-16.42-5.77c-1.86-.2,2.68-10.3,13.66-13.89C172.69,30.34,179.1,43.44,175.45,50Z"/><path class="cls-12" d="M99.83,122.49s4.61,21.73,17.27,28.74c0,0-5.41-8.26-6.51-12.38,0,0,8.15,16.09,34.28,15a30.79,30.79,0,0,1-13.62-6.77s35.91,9.88,56.42-10L139,135s-25.1-15.54-25.62-15.49S99.83,122.49,99.83,122.49Z"/><path class="cls-9" d="M148.15,128.48c10.7,2.39,22.63-.54,35.49-8.74a.57.57,0,0,0,.18-.8.58.58,0,0,0-.8-.18c-13.74,8.76-26.34,11.38-37.44,7.81-17.27-5.55-25-24.45-25.1-24.64a.59.59,0,0,0-.76-.32.58.58,0,0,0-.32.76c.08.19,8,19.59,25.82,25.31C146.19,128,147.16,128.26,148.15,128.48Z"/><path class="cls-9" d="M113.48,105.38s.12-16.5,12.08-6.54c0,0-10-6.57-11.69,9"/><path class="cls-9" d="M178.28,93.07c-6.11,4.46,10.7,5.36,10.7,5.36s2.38-5.66,2.32-10.13S184.4,88.62,178.28,93.07Z"/><ellipse class="cls-12" cx="155.02" cy="91.99" rx="2.4" ry="5.64" transform="translate(-15.35 33.11) rotate(-11.62)"/><ellipse class="cls-9" cx="178.42" cy="83.24" rx="2.4" ry="5.64" transform="translate(-13.11 37.64) rotate(-11.62)"/><polygon class="cls-6" points="154.17 159.47 137.79 160.1 137.79 164.12 154.17 161.8 154.17 159.47"/><path class="cls-11" d="M144.56,36.36s-18.5-11.57-30.57-.12,2.94,20.06,2.94,20.06S137.25,63.11,144.56,36.36Z"/><path class="cls-13" d="M117.25,64.52s34.21-6.36,37.5-29.53l-10.08-3.11s-10,22.62-27.74,24.42Z"/><rect class="cls-11" x="148.49" y="31.93" width="0.64" height="9.2" transform="translate(70.08 167.99) rotate(-72.88)"/><rect class="cls-11" x="146.83" y="35.4" width="0.64" height="9.2" transform="translate(54.71 161.28) rotate(-67.89)"/><rect class="cls-11" x="144.33" y="38.86" width="0.64" height="9.2" transform="translate(33.92 146.18) rotate(-59.57)"/><rect class="cls-11" x="141.75" y="42.22" width="0.64" height="9.2" transform="translate(21.48 135.33) rotate(-54.52)"/><rect class="cls-11" x="138.07" y="46.1" width="0.64" height="8.25" transform="translate(11.99 125.71) rotate(-50.79)"/><rect class="cls-11" x="134" y="49.78" width="0.64" height="6.78" transform="translate(1.03 108.87) rotate(-44.28)"/><rect class="cls-11" x="130.59" y="52.87" width="0.64" height="6.03" transform="translate(-6.7 92.26) rotate(-37.92)"/><rect class="cls-11" x="125.84" y="54.97" width="0.64" height="6.03" transform="translate(-12.46 66) rotate(-27.99)"/><rect class="cls-11" x="120.37" y="56.93" width="0.64" height="6.03" transform="translate(-10.05 27.29) rotate(-12.39)"/><path class="cls-9" d="M425.42,41.92c-6.55,1.8-9.33-1.34-12.39-7,1.17,8.42-9.47,13.61-16.91,9.8a7.19,7.19,0,0,1-3.76-4.15c-9.06,3.16-22.07.46-17.95-5.4,3.15-4.64,12.8-3.3,17.46-2.63-3.72-1.6-7.74-4.13-9.58-7.88-2.75-5.32-.78-16.21,7-13.64,4.66,1.29,7.09,8.17,8.3,12.23,2.32-14.62,24.41-11.92,19,4.22,1.6-5,5.67-7.42,10.65-6.44C439.62,23.36,435.42,39.21,425.42,41.92Z"/><text class="cls-20" transform="translate(231.15 142.57)">26th–27th of June 2018</text><text class="cls-21" transform="translate(232.15 141.57)">26th–27th of June 2018</text><g id="SMASHING_SCHRIFTZUG" data-name="SMASHING SCHRIFTZUG"><path id="SMASHING" class="cls-9" d="M351.86,63.1a3.91,3.91,0,0,1,7.37-1.83l-1.45.47a2.43,2.43,0,1,0-.15,2.92l-.86.15-1-1L358,63.4l2.22-.36-.36,2.23-.36,2.23-1-1,.1-.6a3.91,3.91,0,0,1-6.67-2.76Zm-45.13,1.16a2.61,2.61,0,0,0,.26,1.22,2.25,2.25,0,0,0,.72.84,3,3,0,0,0,1,.48A5.06,5.06,0,0,0,310,67a4.62,4.62,0,0,0,1.36-.18,2.86,2.86,0,0,0,1-.51,1.91,1.91,0,0,0,.6-.78,2.36,2.36,0,0,0,.2-1,1.86,1.86,0,0,0-.27-1.05,2.13,2.13,0,0,0-.64-.66,2.53,2.53,0,0,0-.75-.35,3.61,3.61,0,0,0-.59-.16l-1.17-.3a4.11,4.11,0,0,1-.69-.24.71.71,0,0,1-.33-.25.7.7,0,0,1-.09-.37.82.82,0,0,1,.1-.4,1.38,1.38,0,0,1,.27-.27,1.31,1.31,0,0,1,.37-.15,3,3,0,0,1,.41,0,3.27,3.27,0,0,1,.57.05,1.83,1.83,0,0,1,.48.18,1.1,1.1,0,0,1,.31.36,1.24,1.24,0,0,1,.15.56h1.62a2.29,2.29,0,0,0-.26-1.12,2.07,2.07,0,0,0-.67-.77,2.6,2.6,0,0,0-1-.42,4.19,4.19,0,0,0-1.14-.14,3.47,3.47,0,0,0-1,.14,2.86,2.86,0,0,0-.92.42,2,2,0,0,0-.66.73,2.19,2.19,0,0,0-.06,1.91,2,2,0,0,0,.53.61,2.63,2.63,0,0,0,.72.4,6.09,6.09,0,0,0,.83.25c.28.09.56.16.82.22a7.19,7.19,0,0,1,.73.22,1.61,1.61,0,0,1,.51.33.65.65,0,0,1,.2.5.76.76,0,0,1-.14.48,1.24,1.24,0,0,1-.38.29,1.56,1.56,0,0,1-.48.14,2.69,2.69,0,0,1-.48,0,2.73,2.73,0,0,1-.64-.07,1.56,1.56,0,0,1-.54-.24,1.2,1.2,0,0,1-.36-.44,1.33,1.33,0,0,1-.15-.65Zm18.6-3.21,1,2.79h-2Zm-3.69,5.64V59.17h-2.37l-1.69,5.24-1.79-5.24h-2.36v7.62H315l0-5.35,1.87,5.35h1.29l1.89-5.4v5.4h3.21l.61-1.7h2.84l.58,1.7h1.74l-2.85-7.62h-1.71Zm6.88-2.43a2.49,2.49,0,0,0,.26,1.22,2.34,2.34,0,0,0,.72.84,3,3,0,0,0,1,.48,5,5,0,0,0,1.22.16,4.69,4.69,0,0,0,1.37-.18,2.72,2.72,0,0,0,1-.51,2,2,0,0,0,.62-.78,2.35,2.35,0,0,0,.19-1,1.86,1.86,0,0,0-.27-1.05,2.13,2.13,0,0,0-.64-.66,2.47,2.47,0,0,0-.76-.35,3.09,3.09,0,0,0-.58-.16l-1.17-.3a4.46,4.46,0,0,1-.69-.24.71.71,0,0,1-.33-.25.7.7,0,0,1-.09-.37.72.72,0,0,1,.11-.4,1.11,1.11,0,0,1,.26-.27,1.37,1.37,0,0,1,.38-.15,2.71,2.71,0,0,1,.4,0,3.27,3.27,0,0,1,.57.05,1.47,1.47,0,0,1,.46.18.86.86,0,0,1,.32.36,1,1,0,0,1,.16.56h1.62a2.18,2.18,0,0,0-.26-1.12,2.07,2.07,0,0,0-.67-.77,2.63,2.63,0,0,0-1-.42,4.37,4.37,0,0,0-1.15-.14,3.57,3.57,0,0,0-1,.14,2.68,2.68,0,0,0-.92.42,2,2,0,0,0-.66.73,2.19,2.19,0,0,0-.06,1.91,2,2,0,0,0,.53.61,2.79,2.79,0,0,0,.72.4,6.09,6.09,0,0,0,.83.25,8.3,8.3,0,0,0,.82.22c.27.07.51.14.73.22a1.61,1.61,0,0,1,.51.33.62.62,0,0,1,.2.5.71.71,0,0,1-.15.48,1.09,1.09,0,0,1-.37.29,1.56,1.56,0,0,1-.48.14,3.29,3.29,0,0,1-1.12,0,1.56,1.56,0,0,1-.54-.24,1.34,1.34,0,0,1-.37-.44,1.45,1.45,0,0,1-.14-.65Zm6.7,2.53h1.68V63.5H340v3.29h1.67V59.17H340v2.92H336.9V59.17h-1.68Zm7.2,0h1.68V59.17h-1.68Zm2.44,0h1.57l0-5.1,3.17,5.1h1.67V59.17h-1.57v5.11l-3.19-5.11h-1.66Z"/></g><path class="cls-9" d="M303.84,70.24l-3-12.88a1.94,1.94,0,0,0-2.33-1.46l-2.17.5c.25,0,.5.08.74.14a11.88,11.88,0,0,1,2.8,1l-1.25,3.35a5.92,5.92,0,0,0-3.95-1.2c-1.51,0-2.27.59-2.27,1.8a1.59,1.59,0,0,0,.75,1.27,15.1,15.1,0,0,0,3.18,1.55,9.64,9.64,0,0,1,2.69,1.49,5.51,5.51,0,0,1,.84.83A5.21,5.21,0,0,1,301,70a5,5,0,0,1-1,3.19l2.47-.57A1.94,1.94,0,0,0,303.84,70.24Z"/><path class="cls-9" d="M292.73,66.91a11.92,11.92,0,0,1-2.26-1.2,5.22,5.22,0,0,1-2.54-4.37,4.48,4.48,0,0,1,.95-2.9,3.51,3.51,0,0,1,.37-.4l-3.61.84a1.93,1.93,0,0,0-1.45,2.32l3,12.89a2,2,0,0,0,2.33,1.45L291,75.2l-.12,0A14.37,14.37,0,0,1,288,73.94l1.54-3.44A6.87,6.87,0,0,0,293.92,72c1.7,0,2.54-.6,2.54-1.8a2.22,2.22,0,0,0-.76-1.73A12.14,12.14,0,0,0,292.73,66.91Z"/><path class="cls-9" d="M310.9,70.31a1.31,1.31,0,0,0-.3-.32,1.2,1.2,0,0,0-.39-.2,1.33,1.33,0,0,0-.45-.07,1.47,1.47,0,0,0-.72.16,1.4,1.4,0,0,0-.5.43,1.68,1.68,0,0,0-.29.6,2.59,2.59,0,0,0-.09.68,2.67,2.67,0,0,0,.09.69,1.86,1.86,0,0,0,.29.6,1.4,1.4,0,0,0,.5.43,1.59,1.59,0,0,0,.72.16,1.33,1.33,0,0,0,.54-.11,1.39,1.39,0,0,0,.7-.73,1.79,1.79,0,0,0,.13-.53h.41a2.55,2.55,0,0,1-.18.71,1.75,1.75,0,0,1-.38.54,1.38,1.38,0,0,1-.53.34,1.88,1.88,0,0,1-.69.12,2,2,0,0,1-.87-.18,1.85,1.85,0,0,1-.64-.49,2.61,2.61,0,0,1-.38-.7,3.3,3.3,0,0,1,0-1.69,2.84,2.84,0,0,1,.38-.71,1.85,1.85,0,0,1,.64-.49,2,2,0,0,1,.87-.18,2,2,0,0,1,.6.09,1.66,1.66,0,0,1,.53.27,1.47,1.47,0,0,1,.39.43,1.43,1.43,0,0,1,.2.59h-.4A1.93,1.93,0,0,0,310.9,70.31Z"/><path class="cls-9" d="M313.55,70.75a2.31,2.31,0,0,1,.38-.71,1.81,1.81,0,0,1,.63-.49,2.24,2.24,0,0,1,1.76,0,1.78,1.78,0,0,1,.62.49,2.12,2.12,0,0,1,.38.71,3,3,0,0,1,0,1.69,2,2,0,0,1-.38.7,1.78,1.78,0,0,1-.62.49,2.24,2.24,0,0,1-1.76,0,1.81,1.81,0,0,1-.63-.49,2.16,2.16,0,0,1-.38-.7,3,3,0,0,1,0-1.69Zm.38,1.53a1.83,1.83,0,0,0,.28.6,1.43,1.43,0,0,0,.51.43,1.58,1.58,0,0,0,.73.16,1.55,1.55,0,0,0,.71-.16,1.4,1.4,0,0,0,.5-.43,1.65,1.65,0,0,0,.28-.6,2.3,2.3,0,0,0,.1-.69,2.24,2.24,0,0,0-.1-.68,1.51,1.51,0,0,0-.28-.6,1.4,1.4,0,0,0-.5-.43,1.43,1.43,0,0,0-.71-.16,1.46,1.46,0,0,0-.73.16,1.43,1.43,0,0,0-.51.43,1.66,1.66,0,0,0-.28.6,2.24,2.24,0,0,0-.1.68A2.3,2.3,0,0,0,313.93,72.28Z"/><path class="cls-9" d="M320,69.46l2.48,3.61h0V69.46h.42v4.26h-.46L320,70.12h0v3.6h-.4V69.46Z"/><path class="cls-9" d="M328,69.46v.35h-2.3v1.54h2.05v.34h-2.05v2h-.4V69.46Z"/><path class="cls-9" d="M332.91,69.46v.35h-2.53v1.54h2.37v.34h-2.37v1.69h2.56v.34h-3V69.46Z"/><path class="cls-9" d="M337,69.46a2.16,2.16,0,0,1,.51.07,1.12,1.12,0,0,1,.41.2,1,1,0,0,1,.28.34,1.3,1.3,0,0,1-.11,1.21,1,1,0,0,1-.61.38h0a1,1,0,0,1,.34.11A.63.63,0,0,1,338,72a.7.7,0,0,1,.13.29,1.84,1.84,0,0,1,.05.35c0,.07,0,.16,0,.26s0,.21,0,.32a1.63,1.63,0,0,0,.07.3.41.41,0,0,0,.1.21h-.45a.38.38,0,0,1-.05-.14,1.16,1.16,0,0,1,0-.18.55.55,0,0,0,0-.18.81.81,0,0,0,0-.16c0-.15,0-.3,0-.45a1.24,1.24,0,0,0-.1-.4.78.78,0,0,0-.26-.28.83.83,0,0,0-.45-.1h-1.54v1.89H335V69.46Zm0,2a1,1,0,0,0,.36-.06,1.08,1.08,0,0,0,.3-.16,1,1,0,0,0,.19-.27.63.63,0,0,0,.08-.34.81.81,0,0,0-.23-.62.93.93,0,0,0-.7-.23h-1.51v1.68Z"/><path class="cls-9" d="M343.42,69.46v.35h-2.54v1.54h2.38v.34h-2.38v1.69h2.57v.34h-3V69.46Z"/><path class="cls-9" d="M346,69.46l2.48,3.61h0V69.46h.4v4.26h-.45l-2.48-3.6h0v3.6h-.4V69.46Z"/><path class="cls-9" d="M354.15,70.31a1.28,1.28,0,0,0-.29-.32,1.36,1.36,0,0,0-.4-.2,1.21,1.21,0,0,0-.43-.07,1.53,1.53,0,0,0-.74.16,1.49,1.49,0,0,0-.5.43,1.66,1.66,0,0,0-.28.6,2.24,2.24,0,0,0-.1.68,2.3,2.3,0,0,0,.1.69,1.83,1.83,0,0,0,.28.6,1.49,1.49,0,0,0,.5.43,1.65,1.65,0,0,0,.74.16,1.32,1.32,0,0,0,.53-.11,1.22,1.22,0,0,0,.41-.29,1.33,1.33,0,0,0,.28-.44,1.54,1.54,0,0,0,.14-.53h.4a2.24,2.24,0,0,1-.18.71,1.91,1.91,0,0,1-.37.54,1.5,1.5,0,0,1-.54.34,1.85,1.85,0,0,1-.67.12,2,2,0,0,1-.89-.18,1.81,1.81,0,0,1-.63-.49,2.16,2.16,0,0,1-.38-.7,3,3,0,0,1,0-1.69,2.31,2.31,0,0,1,.38-.71,1.81,1.81,0,0,1,.63-.49,2,2,0,0,1,.89-.18,2,2,0,0,1,.59.09,1.72,1.72,0,0,1,.52.27,1.5,1.5,0,0,1,.4.43,1.58,1.58,0,0,1,.19.59h-.4A1.14,1.14,0,0,0,354.15,70.31Z"/><path class="cls-9" d="M359.85,69.46v.35h-2.54v1.54h2.38v.34h-2.38v1.69h2.57v.34h-3V69.46Z"/><path class="cls-22" d="M312.31,91.37s.21,21.44,1.24,21.36,10.86,0,10.86,0L325,92Z"/><circle class="cls-6" cx="412.08" cy="106.58" r="16.18"/><circle class="cls-9" cx="413.92" cy="104.6" r="16.18"/><g class="cls-23"><rect class="cls-12" x="421.11" y="90.16" width="7.12" height="28.42" transform="translate(-2.14 9.15) rotate(-1.23)"/><rect class="cls-12" x="399.61" y="90.62" width="7.12" height="28.42" transform="matrix(1, -0.02, 0.02, 1, -2.16, 8.69)"/><path class="cls-24" d="M414.34,111.21c-.1-1.16-.15-1.92-.19-2.65,0-.31.25-.29.46-.26l2.48.33c-.91-1.63,1.27-2.48,2.38-3.46-.88-.28-.76-.17-.24-2.29-1.82.62-1.67.45-2.08-.45,0,0-.13.17-1.25,1.48-.16.19-.43.07-.38-.21.53-3,.56-3.08.56-3.08-1.15.73-1.1.77-1.3.41-.66-1.23-1-1.83-1-1.83s-.29.62-.9,1.87c-.18.36-.14.32-1.31-.35,0,0,0,.12.69,3,.06.28-.21.41-.37.23l-1.32-1.43c-.37.92-.21,1.08-2.05.54.6,2.09.72,2-.15,2.29,1.15.94,3.37,1.69,2.53,3.36l2.47-.43c.2,0,.47-.08.46.24,0,.73,0,1.48-.07,2.66Z"/></g><g class="cls-6"><path d="M373.62,92a16.86,16.86,0,0,0-9.53,2.82,2.85,2.85,0,0,0-2.82-2.42H341a3.55,3.55,0,0,0-.57,0,3.79,3.79,0,0,0-.58,0h-7.32a2.87,2.87,0,0,0-2.88,2.87V98l-3.21-4.38a2.86,2.86,0,0,0-2.32-1.17H316.6a2.87,2.87,0,0,0-2.88,2.87v1.15A16.45,16.45,0,0,0,302.21,92a16.25,16.25,0,0,0-12.34,5.29,11.28,11.28,0,0,0-9.79-4.89h-12.9a2.86,2.86,0,0,0-2.87,2.87v1.15A16.46,16.46,0,0,0,252.8,92a16.82,16.82,0,0,0-9.53,2.82,2.87,2.87,0,0,0-2.83-2.42H220.19a2.86,2.86,0,0,0-2.87,2.87v6.37a2.87,2.87,0,0,0,2.87,2.88h3.61v14.91a2.88,2.88,0,0,0,2.87,2.88H234a2.88,2.88,0,0,0,2.88-2.88V109.7c1.09,7.59,7.57,13.06,15.93,13.06a16.46,16.46,0,0,0,11.51-4.42v1.11a2.87,2.87,0,0,0,2.87,2.88h7.32a2.88,2.88,0,0,0,2.87-2.81l.47,1.09a2.88,2.88,0,0,0,2.63,1.72h8.34a2.88,2.88,0,0,0,2.45-1.38,2.92,2.92,0,0,0,.41-1.77,17.25,17.25,0,0,0,22.05-.84v1.11a2.88,2.88,0,0,0,2.88,2.88h7.31a2.88,2.88,0,0,0,2.88-2.88V116l3.71,5.1a2.87,2.87,0,0,0,2.33,1.19h7a2.88,2.88,0,0,0,2.87-2.88V104.54h1.9v14.91a2.87,2.87,0,0,0,2.87,2.88h7.32a2.88,2.88,0,0,0,2.87-2.88v-9.76c1.1,7.59,7.58,13.07,15.93,13.07,9.18,0,16.1-6.61,16.1-15.37S382.8,92,373.62,92Z"/><path d="M226.67,119.45V101.66h-6.48V95.29h20.25v6.37H234v17.79Z"/><path d="M239.57,107.39c0-7.43,5.76-12.5,13.23-12.5S266,100,266,107.39s-5.76,12.5-13.22,12.5S239.57,114.82,239.57,107.39Zm19,0a5.8,5.8,0,1,0-5.79,6A5.72,5.72,0,0,0,258.59,107.39Z"/><path d="M280.47,119.45l-3.33-7.61H274.5v7.61h-7.32V95.29h12.9c5.65,0,8.69,3.77,8.69,8.29a7.79,7.79,0,0,1-4.35,7.32l4.39,8.55Zm.87-15.9c0-1.31-1.16-1.89-2.39-1.89H274.5v3.81H279C280.18,105.47,281.34,104.89,281.34,103.55Z"/><path d="M289,107.39c0-7.43,5.76-12.5,13.22-12.5s13.23,5.07,13.23,12.5-5.76,12.5-13.23,12.5S289,114.82,289,107.39Zm19,0a5.8,5.8,0,1,0-5.8,6A5.72,5.72,0,0,0,308,107.39Z"/><path d="M332.83,119.45l-8.92-12.24v12.24H316.6V95.29h7.53l8.41,11.45V95.29h7.32v24.16Z"/><path d="M347.5,119.45V101.66H341V95.29h20.25v6.37h-6.45v17.79Z"/><path d="M360.4,107.39c0-7.43,5.76-12.5,13.22-12.5s13.23,5.07,13.23,12.5-5.77,12.5-13.23,12.5S360.4,114.82,360.4,107.39Zm19,0a5.81,5.81,0,1,0-5.8,6A5.72,5.72,0,0,0,379.42,107.39Z"/></g><path class="cls-9" d="M375.92,89.72a16.86,16.86,0,0,0-9.53,2.82,2.85,2.85,0,0,0-2.82-2.42H343.31a2.78,2.78,0,0,0-.58.06,2.72,2.72,0,0,0-.58-.06h-7.31A2.87,2.87,0,0,0,332,93v2.68l-3.21-4.38a2.89,2.89,0,0,0-2.32-1.17h-7.54A2.87,2.87,0,0,0,316,93v1.15a16.45,16.45,0,0,0-11.51-4.42A16.25,16.25,0,0,0,292.17,95a11.29,11.29,0,0,0-9.8-4.89H269.48A2.87,2.87,0,0,0,266.6,93v1.15a16.43,16.43,0,0,0-11.51-4.42,16.81,16.81,0,0,0-9.52,2.82,2.87,2.87,0,0,0-2.83-2.42H222.49A2.87,2.87,0,0,0,219.61,93v6.38a2.88,2.88,0,0,0,2.88,2.87h3.61v14.91A2.88,2.88,0,0,0,229,120h7.32a2.87,2.87,0,0,0,2.87-2.88V107.4c1.1,7.59,7.58,13.06,15.93,13.06A16.43,16.43,0,0,0,266.6,116v1.11a2.88,2.88,0,0,0,2.88,2.88h7.32a2.88,2.88,0,0,0,2.87-2.81l.47,1.09a2.88,2.88,0,0,0,2.63,1.72h8.34a2.86,2.86,0,0,0,2.45-1.38,2.91,2.91,0,0,0,.41-1.76,16.66,16.66,0,0,0,10.54,3.57A16.45,16.45,0,0,0,316,116v1.11a2.88,2.88,0,0,0,2.87,2.88h7.32a2.88,2.88,0,0,0,2.88-2.88v-3.41l3.71,5.1a2.87,2.87,0,0,0,2.32,1.19h7a2.88,2.88,0,0,0,2.88-2.88V102.24h1.9v14.91A2.87,2.87,0,0,0,349.8,120h7.32a2.88,2.88,0,0,0,2.87-2.88v-9.76c1.1,7.6,7.58,13.07,15.93,13.07,9.18,0,16.1-6.61,16.1-15.37S385.1,89.72,375.92,89.72Z"/><path class="cls-12" d="M229,117.15V99.37h-6.48V93h20.25v6.38h-6.45v17.78Z"/><path class="cls-12" d="M241.87,105.09c0-7.43,5.76-12.5,13.22-12.5s13.23,5.07,13.23,12.5-5.76,12.5-13.23,12.5S241.87,112.52,241.87,105.09Zm19,0a5.8,5.8,0,1,0-5.8,6A5.72,5.72,0,0,0,260.89,105.09Z"/><path class="cls-12" d="M282.77,117.15l-3.33-7.6H276.8v7.6h-7.32V93h12.89c5.66,0,8.7,3.77,8.7,8.3a7.78,7.78,0,0,1-4.35,7.31l4.39,8.55Zm.87-15.9c0-1.3-1.16-1.88-2.39-1.88H276.8v3.8h4.45C282.48,103.17,283.64,102.59,283.64,101.25Z"/><path class="cls-12" d="M291.29,105.09c0-7.43,5.76-12.5,13.22-12.5s13.22,5.07,13.22,12.5-5.76,12.5-13.22,12.5S291.29,112.52,291.29,105.09Zm19,0a5.81,5.81,0,1,0-5.8,6A5.72,5.72,0,0,0,310.31,105.09Z"/><path class="cls-12" d="M335.12,117.15l-8.91-12.24v12.24h-7.32V93h7.54l8.41,11.45V93h7.31v24.16Z"/><path class="cls-12" d="M349.8,117.15V99.37h-6.49V93h20.26v6.38h-6.45v17.78Z"/><path class="cls-12" d="M362.7,105.09c0-7.43,5.76-12.5,13.22-12.5s13.22,5.07,13.22,12.5-5.76,12.5-13.22,12.5S362.7,112.52,362.7,105.09Zm19,0a5.81,5.81,0,1,0-5.8,6A5.72,5.72,0,0,0,381.72,105.09Z"/><rect class="cls-8" x="239.38" y="169.91" width="39.4" height="66.95" transform="translate(-46.96 325.14) rotate(-59.83)"/><polygon class="cls-25" points="236.99 174.77 288.94 204.97 272.18 233.79 278.12 237.24 294.87 208.42 297.92 203.18 291.98 199.72 240.04 169.53 236.99 174.77"/><rect class="cls-26" x="266.01" y="147.72" width="11.93" height="66.95" transform="translate(-21.36 325.26) rotate(-59.83)"/><polygon class="cls-8" points="251.24 176.04 245.61 172.77 246.03 159.22 251.67 162.49 251.24 176.04"/><polygon class="cls-8" points="262.91 182.83 257.28 179.55 257.7 166 263.33 169.28 262.91 182.83"/><polygon class="cls-8" points="274.58 189.61 268.95 186.33 269.37 172.78 275 176.06 274.58 189.61"/><polygon class="cls-8" points="286.25 196.39 280.62 193.12 281.04 179.57 286.67 182.84 286.25 196.39"/><polygon class="cls-8" points="297.92 203.18 292.28 199.9 292.7 186.35 298.34 189.63 297.92 203.18"/><rect class="cls-9" x="266.01" y="147.72" width="11.93" height="66.95" transform="translate(-21.36 325.26) rotate(-59.83)"/><polygon class="cls-8" points="251.24 176.04 245.61 172.77 246.03 159.22 251.67 162.49 251.24 176.04"/><polygon class="cls-8" points="262.91 182.83 257.28 179.55 257.7 166 263.33 169.28 262.91 182.83"/><polygon class="cls-8" points="274.58 189.61 268.95 186.33 269.37 172.78 275 176.06 274.58 189.61"/><polygon class="cls-8" points="286.25 196.39 280.62 193.12 281.04 179.57 286.67 182.84 286.25 196.39"/><polygon class="cls-8" points="297.92 203.18 292.28 199.9 292.7 186.35 298.34 189.63 297.92 203.18"/><rect class="cls-9" x="274.77" y="125.25" width="11.93" height="66.95" transform="translate(78.27 409.75) rotate(-80.59)"/><polygon class="cls-8" points="259.53 161.25 253.1 160.19 248.69 147.37 255.12 148.43 259.53 161.25"/><polygon class="cls-8" points="272.84 163.46 266.41 162.39 262 149.57 268.43 150.64 272.84 163.46"/><polygon class="cls-8" points="286.16 165.66 279.73 164.6 275.32 151.78 281.75 152.84 286.16 165.66"/><polygon class="cls-8" points="299.48 167.87 293.04 166.8 288.63 153.98 295.06 155.05 299.48 167.87"/><polygon class="cls-8" points="301.95 156.19 306.36 169.01 312.79 170.07 308.38 157.25 301.95 156.19"/><path class="cls-9" d="M247.74,162.74a3.91,3.91,0,1,1,1.81-5.23,3.92,3.92,0,0,1-1.81,5.23"/><path class="cls-8" d="M247.74,162.74l-.59-1.22a2.58,2.58,0,0,1-2.67-.27,2.52,2.52,0,0,1-.75-.92,2.49,2.49,0,0,1-.2-1.62,2.43,2.43,0,0,1,.47-1.05,2.56,2.56,0,0,1,.91-.74,2.52,2.52,0,0,1,1.63-.21,2.59,2.59,0,0,1,1,.47,2.52,2.52,0,0,1,.75.92,2.57,2.57,0,0,1-1.18,3.42l.59,1.22.59,1.21a5.26,5.26,0,0,0,2.44-7,5.22,5.22,0,0,0-1.54-1.89,5.12,5.12,0,0,0-2.15-1,5.17,5.17,0,0,0-3.35.42,5.27,5.27,0,0,0,4.6,9.48Z"/><path class="cls-27" d="M242,166.08l-2,3.45Z"/><path class="cls-28" d="M242,166.08l-2,3.45,10.75,6.25-5.18-3,.14-4.54L242,166.08m9.35,5.43-.15,4.53,7.86,4.57-1.82-1.06.14-4.54Z"/><polygon class="cls-29" points="245.75 168.23 245.61 172.77 250.79 175.78 251.24 176.04 251.38 171.51 245.75 168.23"/><path class="cls-28" d="M263.05,178.29l-.14,4.54,6,3.5.14-4.53Zm11.67,6.78-.14,4.54,6,3.51.15-4.54Zm11.67,6.79-.14,4.53-2.3-1.33,14,8.12-5.64-3.28.14-4.54Z"/><polygon class="cls-29" points="257.42 175.01 257.28 179.55 259.1 180.61 262.91 182.83 263.05 178.29 257.42 175.01"/><polygon class="cls-29" points="269.09 181.8 268.95 186.34 274.58 189.61 274.72 185.07 269.09 181.8"/><polygon class="cls-29" points="280.76 188.58 280.62 193.12 283.95 195.06 286.25 196.39 286.39 191.86 280.76 188.58"/><polygon class="cls-28" points="298.06 198.64 297.92 203.18 299.93 199.72 298.06 198.64"/><polygon class="cls-29" points="292.42 195.37 292.28 199.9 297.92 203.18 298.06 198.64 292.42 195.37"/><path id="SMASHING-2" data-name="SMASHING" class="cls-9" d="M275.19,210.9a2.55,2.55,0,0,1,4.72,1.49l-1-.23a1.56,1.56,0,0,0-.76-1.28,1.58,1.58,0,0,0-2.18.52,1.59,1.59,0,0,0,1.86,2.34l-.53-.21-.22-.93,1.37.55,1.36.56-1,1.12-1,1.12-.22-.93.26-.31a2.5,2.5,0,0,1-1.93-.3A2.54,2.54,0,0,1,275.19,210.9Zm-25.57-14.72a1.49,1.49,0,0,0-.27.77,1.35,1.35,0,0,0,.11.71,1.89,1.89,0,0,0,.42.62,3.19,3.19,0,0,0,.63.51,3.37,3.37,0,0,0,.82.36,1.87,1.87,0,0,0,.73.06,1.42,1.42,0,0,0,.6-.23,1.65,1.65,0,0,0,.44-.47,1.27,1.27,0,0,0,.21-.68,1.38,1.38,0,0,0-.14-.58,1.66,1.66,0,0,0-.3-.46,2.78,2.78,0,0,0-.27-.29l-.55-.56a3.55,3.55,0,0,1-.31-.37.75.75,0,0,1-.1-.25.62.62,0,0,1,.08-.24.52.52,0,0,1,.2-.19.6.6,0,0,1,.24,0,.59.59,0,0,1,.26,0,1.28,1.28,0,0,1,.24.11,2.37,2.37,0,0,1,.3.23,1,1,0,0,1,.2.26.73.73,0,0,1,.06.3,1,1,0,0,1-.12.37l.91.55a1.47,1.47,0,0,0,.24-.71,1.48,1.48,0,0,0-.11-.66,1.72,1.72,0,0,0-.41-.57,2.77,2.77,0,0,0-.59-.47,2.23,2.23,0,0,0-.61-.27,1.88,1.88,0,0,0-.66-.07,1.39,1.39,0,0,0-.62.18,1.23,1.23,0,0,0-.48.48,1.19,1.19,0,0,0-.2.56,1.27,1.27,0,0,0,.09.52,2,2,0,0,0,.26.47,5.3,5.3,0,0,0,.38.43l.38.4a3.53,3.53,0,0,1,.33.37,1.06,1.06,0,0,1,.18.35.44.44,0,0,1-.06.35.46.46,0,0,1-.24.22,1.06,1.06,0,0,1-.31,0,1.17,1.17,0,0,1-.32-.09l-.28-.14a2.1,2.1,0,0,1-.33-.26,1.08,1.08,0,0,1-.22-.32.88.88,0,0,1,.09-.78Zm11.47,4.54-.42,1.89-1.1-.68Zm-4,1.89,2.56-4.2-1.31-.8L255.62,200l.78-3.53-1.31-.8-2.6,4.25.88.53,1.83-3-.78,3.62.72.44,2.89-2.37-1.84,3,.88.53.92.57.91-.75,1.59,1-.26,1.15,1,.59,1-5.22-1-.59Zm4.67,1a1.59,1.59,0,0,0-.27.77,1.54,1.54,0,0,0,.11.71,1.8,1.8,0,0,0,.42.62,3.13,3.13,0,0,0,.63.51,3.07,3.07,0,0,0,.82.37,2.08,2.08,0,0,0,.73,0,1.5,1.5,0,0,0,.61-.22,1.57,1.57,0,0,0,.44-.48,1.23,1.23,0,0,0,.2-.68,1.59,1.59,0,0,0-.13-.58,2.29,2.29,0,0,0-.3-.46c-.12-.13-.21-.23-.28-.29l-.55-.56a3.49,3.49,0,0,1-.3-.37.45.45,0,0,1-.1-.25.52.52,0,0,1,.08-.24.49.49,0,0,1,.2-.18.6.6,0,0,1,.23-.06.84.84,0,0,1,.27,0,1,1,0,0,1,.23.12,1.46,1.46,0,0,1,.3.22.79.79,0,0,1,.2.26.52.52,0,0,1,.06.3.78.78,0,0,1-.11.37l.9.56a1.43,1.43,0,0,0,.24-.72,1.3,1.3,0,0,0-.11-.65,2,2,0,0,0-.4-.58,3.38,3.38,0,0,0-.59-.47,2.62,2.62,0,0,0-.62-.26,1.67,1.67,0,0,0-.66-.08,1.35,1.35,0,0,0-.61.18,1.32,1.32,0,0,0-.49.48,1.5,1.5,0,0,0-.2.57,1.33,1.33,0,0,0,.09.52,1.73,1.73,0,0,0,.27.47,4.83,4.83,0,0,0,.37.42l.39.41q.18.18.33.36a1,1,0,0,1,.17.36.4.4,0,0,1,0,.35.58.58,0,0,1-.25.22.78.78,0,0,1-.31,0,1.87,1.87,0,0,1-.32-.08l-.27-.15a1.8,1.8,0,0,1-.34-.26.93.93,0,0,1-.21-.32.8.8,0,0,1,.09-.78Zm2.87,3.69.94.57L266.7,206l1.72,1.05-1.12,1.84.93.57,2.6-4.26-.93-.57-1,1.63-1.72-1,1-1.63-.94-.57Zm4,2.45.94.58,2.59-4.25-.93-.58Zm1.36.84.88.53,1.75-2.84,0,3.93.93.57,2.6-4.25-.88-.54-1.75,2.85,0-3.94-.92-.57Z"/><path class="cls-9" d="M246,198.53l2.72-8.2a1.28,1.28,0,0,0-.8-1.61l-1.38-.46.36.33.77.25a1.26,1.26,0,0,1,.8,1.61l-1,3a5.75,5.75,0,0,1-2.64.94,3.75,3.75,0,0,1,.19.75,3.4,3.4,0,0,1-.54,2.21,3.23,3.23,0,0,1-1.66,1.43l1.57.52A1.28,1.28,0,0,0,246,198.53Z"/><path class="cls-9" d="M235.87,195.19l2-1.39a4.51,4.51,0,0,0,1.92,2.35c.94.58,1.62.53,2-.14a1.45,1.45,0,0,0,.16-1.23,7.85,7.85,0,0,0-1.11-1.9,8.5,8.5,0,0,1-.85-1.43,5.83,5.83,0,0,0-3.33.14l1.52-4.54a1.25,1.25,0,0,1,1.6-.8l1.8.6a1.91,1.91,0,0,1,.34-.1l-2.29-.76a1.26,1.26,0,0,0-1.61.8l-2.72,8.2a1.28,1.28,0,0,0,.8,1.61l.94.31-.06,0A9.61,9.61,0,0,1,235.87,195.19Z"/><path class="cls-9" d="M240.12,188.14a3,3,0,0,1,1.52-1.29l-1.8-.6a1.14,1.14,0,0,0-1.6.8l-1.52,4.54a5.83,5.83,0,0,1,3.33-.14A3.42,3.42,0,0,1,240.12,188.14Z"/><path class="cls-9" d="M246.25,191.55a3.87,3.87,0,0,0-1.79-2c-.84-.51-1.47-.44-1.88.24a1,1,0,0,0,0,1,10.35,10.35,0,0,0,1.25,2,6.29,6.29,0,0,1,1,1.74,5.75,5.75,0,0,0,2.64-.94l1-3a1.18,1.18,0,0,0-.8-1.61l-.77-.25a7.76,7.76,0,0,1,1.22,1.51Z"/><path class="cls-9" d="M249.88,201a.88.88,0,0,0-.06-.28.73.73,0,0,0-.15-.25,1.37,1.37,0,0,0-.22-.19,1.1,1.1,0,0,0-.46-.16,1.25,1.25,0,0,0-.43.07,1.41,1.41,0,0,0-.36.24,1.64,1.64,0,0,0-.29.35,1.57,1.57,0,0,0-.18.42,1.26,1.26,0,0,0,0,.43.9.9,0,0,0,.13.41,1,1,0,0,0,.35.34,1.06,1.06,0,0,0,.34.12.92.92,0,0,0,.33,0,.94.94,0,0,0,.3-.15,1.23,1.23,0,0,0,.26-.25l.23.14a2.15,2.15,0,0,1-.35.33,1,1,0,0,1-.39.17.85.85,0,0,1-.42,0,1.45,1.45,0,0,1-.42-.16,1.25,1.25,0,0,1-.42-.4,1.07,1.07,0,0,1-.19-.49,1.32,1.32,0,0,1,0-.52,2.14,2.14,0,0,1,.22-.52,2.44,2.44,0,0,1,.35-.43,1.61,1.61,0,0,1,.46-.26,1.07,1.07,0,0,1,.51-.06,1.31,1.31,0,0,1,.55.2,1.26,1.26,0,0,1,.31.25,1.12,1.12,0,0,1,.2.33,1.21,1.21,0,0,1,.07.37.93.93,0,0,1-.09.4l-.22-.13A1.81,1.81,0,0,0,249.88,201Z"/></g></g></svg>